<svg xmlns="http://www.w3.org/2000/svg" xmlns:xlink="http://www.w3.org/1999/xlink" viewBox="0 0 500 500"><defs><clipPath id="freepik--clip-path--inject-1--inject-47"><path d="M244.27,198.85s6.08,50.15,6.08,52.38-5.57,3.34-5.57,6.12a25,25,0,0,1-1.39,6.68s-1.11,1.12-1.11,2,1.95.56,3.62-.27,2.22-3.9,2.22-3.9a49.53,49.53,0,0,0-.83,5.57l-1.11,1.11s-3.34,3.06-1.12,3.34,12.53-3.62,13.09-6.12-1.4-14.48-1.4-14.48,8.08-56.51,8.08-61.8a7.42,7.42,0,0,0-4.46-7" style="fill:#fff;stroke:#263238;stroke-linecap:round;stroke-linejoin:round;stroke-width:0.8350869999999999px"></path></clipPath><clipPath id="freepik--clip-path-2--inject-1--inject-47"><path d="M127.75,173.22s-3.67,8.66-2,10,2.66,2,2.66,2,1,11.65,2.66,13.65,12.32-1.33,12.32-1.33S165,219.17,165.7,215.17s-2-19-2-20.64-4.66-6-4.66-6" style="fill:none;stroke:#263238;stroke-linecap:round;stroke-linejoin:round;stroke-width:0.8350869999999999px"></path></clipPath><clipPath id="freepik--clip-path-3--inject-1--inject-47"><path d="M230.21,174.85l1.87.72,26.68,4.88s4.35,2.29,5.88,4.73.15,11.34.15,11.34L262,217.46,266.47,255l-7.8,5.85.3,3.71c.21.06-.05,4.95-11.62,7,0,0-2.4,1.2-3.1.67-1.77-1.33-.35-1.22-.35-1.22l-4.68,3a16.85,16.85,0,0,1-.74,7c-1.22,4-2.06,4.78-2.06,4.78L238.55,323l5.13,7.31,67,40.67H434.2V98.5H228.7v75.78Z" style="fill:none"></path></clipPath><clipPath id="freepik--clip-path-4--inject-1--inject-47"><path d="M152.37,211.7s-11.69,9.47-11.69,12-.84,49.55-.28,50.66S163,260.14,163,260.14l-2.23-20.32" style="fill:none;stroke:#263238;stroke-linecap:round;stroke-linejoin:round;stroke-width:0.8350869999999999px"></path></clipPath><clipPath id="freepik--clip-path-5--inject-1--inject-47"><path d="M170.62,192s22.95-21.81,25.73-21.81,48.71,9.18,52.05,9.74,8.91,1.67,8.91,1.67-9.74,12.25-13.08,16.42-5,6.68-5,6.68l-37.58-17.25" style="fill:none;stroke:#263238;stroke-linecap:round;stroke-linejoin:round;stroke-width:0.8350869999999999px"></path></clipPath><clipPath id="freepik--clip-path-6--inject-1--inject-47"><path d="M161.83,261.81l33.41-15.59,2.78-9.74L209.43,234s2.23-2.23,1.95,0-3.34,3.06-4.45,5.29-1.12,6.68-2.51,8.63-6.4,4.18-6.4,4.18-37.58,31.45-40.36,33.12-8.35-14.2-8.35-14.2" style="fill:#fff;stroke:#263238;stroke-linecap:round;stroke-linejoin:round;stroke-width:0.8350869999999999px"></path></clipPath></defs><g id="freepik--Clouds--inject-1--inject-47"><path d="M453.45,123.39s-3.83-11-14.85-11.49-9.1,10.06-16.76,12.93-10.54-5.27-17.25-3.35-2.39,7.18-8.14,9.1-5.27-3.35-13.89,1-10.54,5.75-12.46,6.23-19.16,3.35-19.16,3.35H470.22s3.36-10.54-3.35-14.85S460.64,127.23,453.45,123.39Z" style="fill:#886C4B"></path><path d="M453.45,123.39s-3.83-11-14.85-11.49-9.1,10.06-16.76,12.93-10.54-5.27-17.25-3.35-2.39,7.18-8.14,9.1-5.27-3.35-13.89,1-10.54,5.75-12.46,6.23-19.16,3.35-19.16,3.35H470.22s3.36-10.54-3.35-14.85S460.64,127.23,453.45,123.39Z" style="fill:#fff;opacity:0.7000000000000001"></path><path d="M234.27,105.59s-2.33-6.68-9-7-5.51,6.09-10.16,7.84-6.39-3.2-10.46-2-1.45,4.36-4.93,5.52-3.2-2-8.43.58-6.38,3.49-7.55,3.78-11.61,2-11.61,2h72.31s2-6.39-2-9S238.62,107.91,234.27,105.59Z" style="fill:#886C4B"></path><path d="M234.27,105.59s-2.33-6.68-9-7-5.51,6.09-10.16,7.84-6.39-3.2-10.46-2-1.45,4.36-4.93,5.52-3.2-2-8.43.58-6.38,3.49-7.55,3.78-11.61,2-11.61,2h72.31s2-6.39-2-9S238.62,107.91,234.27,105.59Z" style="fill:#fff;opacity:0.8"></path><path d="M112.63,223s-3.13-9-12.12-9.38-7.44,8.21-13.69,10.56-8.61-4.31-14.08-2.74-2,5.86-6.65,7.43-4.3-2.74-11.34.78-8.6,4.69-10.17,5.09-15.64,2.73-15.64,2.73h97.38s2.73-8.6-2.74-12.12S118.49,226.15,112.63,223Z" style="fill:#886C4B"></path><g style="opacity:0.7000000000000001"><path d="M112.63,223s-3.13-9-12.12-9.38-7.44,8.21-13.69,10.56-8.61-4.31-14.08-2.74-2,5.86-6.65,7.43-4.3-2.74-11.34.78-8.6,4.69-10.17,5.09-15.64,2.73-15.64,2.73h97.38s2.73-8.6-2.74-12.12S118.49,226.15,112.63,223Z" style="fill:#fff"></path></g></g></svg>